<mxfile host="app.diagrams.net" modified="2020-12-22T16:16:21.014Z" agent="5.0 (Windows NT 10.0; Win64; x64) AppleWebKit/537.36 (KHTML, like Gecko) Chrome/87.0.4280.88 Safari/537.36" etag="IQsY67btnhAMN6TOisY-" version="14.1.1" type="github">
  <diagram id="xIj1F3JyH_2kIQT9uFTu" name="Page-1">
    <mxGraphModel dx="996" dy="560" grid="1" gridSize="10" guides="1" tooltips="1" connect="1" arrows="1" fold="1" page="1" pageScale="1" pageWidth="827" pageHeight="1169" math="0" shadow="0">
      <root>
        <mxCell id="0" />
        <mxCell id="1" parent="0" />
        <mxCell id="knzixwsPzXXYDATVJ2sN-6" style="edgeStyle=orthogonalEdgeStyle;rounded=0;orthogonalLoop=1;jettySize=auto;html=1;entryX=0;entryY=0.5;entryDx=0;entryDy=0;" edge="1" parent="1" source="knzixwsPzXXYDATVJ2sN-1" target="knzixwsPzXXYDATVJ2sN-2">
          <mxGeometry relative="1" as="geometry" />
        </mxCell>
        <mxCell id="knzixwsPzXXYDATVJ2sN-7" style="edgeStyle=orthogonalEdgeStyle;rounded=0;orthogonalLoop=1;jettySize=auto;html=1;entryX=0;entryY=0.5;entryDx=0;entryDy=0;" edge="1" parent="1" source="knzixwsPzXXYDATVJ2sN-1" target="knzixwsPzXXYDATVJ2sN-3">
          <mxGeometry relative="1" as="geometry" />
        </mxCell>
        <mxCell id="knzixwsPzXXYDATVJ2sN-8" style="edgeStyle=orthogonalEdgeStyle;rounded=0;orthogonalLoop=1;jettySize=auto;html=1;entryX=0;entryY=0.5;entryDx=0;entryDy=0;" edge="1" parent="1" source="knzixwsPzXXYDATVJ2sN-1" target="knzixwsPzXXYDATVJ2sN-4">
          <mxGeometry relative="1" as="geometry" />
        </mxCell>
        <mxCell id="knzixwsPzXXYDATVJ2sN-9" style="edgeStyle=orthogonalEdgeStyle;rounded=0;orthogonalLoop=1;jettySize=auto;html=1;entryX=0;entryY=0.5;entryDx=0;entryDy=0;" edge="1" parent="1" source="knzixwsPzXXYDATVJ2sN-1" target="knzixwsPzXXYDATVJ2sN-5">
          <mxGeometry relative="1" as="geometry" />
        </mxCell>
        <mxCell id="knzixwsPzXXYDATVJ2sN-1" value="one version" style="rounded=0;whiteSpace=wrap;html=1;" vertex="1" parent="1">
          <mxGeometry x="40" y="260" width="120" height="60" as="geometry" />
        </mxCell>
        <mxCell id="knzixwsPzXXYDATVJ2sN-13" style="edgeStyle=orthogonalEdgeStyle;rounded=0;orthogonalLoop=1;jettySize=auto;html=1;exitX=1;exitY=0.5;exitDx=0;exitDy=0;" edge="1" parent="1" source="knzixwsPzXXYDATVJ2sN-2" target="knzixwsPzXXYDATVJ2sN-14">
          <mxGeometry relative="1" as="geometry">
            <mxPoint x="450" y="250" as="targetPoint" />
          </mxGeometry>
        </mxCell>
        <mxCell id="knzixwsPzXXYDATVJ2sN-2" value="draw_yi" style="rounded=0;whiteSpace=wrap;html=1;" vertex="1" parent="1">
          <mxGeometry x="270" y="80" width="120" height="60" as="geometry" />
        </mxCell>
        <mxCell id="knzixwsPzXXYDATVJ2sN-15" style="edgeStyle=orthogonalEdgeStyle;rounded=0;orthogonalLoop=1;jettySize=auto;html=1;exitX=1;exitY=0.5;exitDx=0;exitDy=0;entryX=0.5;entryY=0;entryDx=0;entryDy=0;" edge="1" parent="1" source="knzixwsPzXXYDATVJ2sN-3" target="knzixwsPzXXYDATVJ2sN-14">
          <mxGeometry relative="1" as="geometry" />
        </mxCell>
        <mxCell id="knzixwsPzXXYDATVJ2sN-3" value="draw_lu" style="rounded=0;whiteSpace=wrap;html=1;" vertex="1" parent="1">
          <mxGeometry x="270" y="200" width="120" height="60" as="geometry" />
        </mxCell>
        <mxCell id="knzixwsPzXXYDATVJ2sN-16" style="edgeStyle=orthogonalEdgeStyle;rounded=0;orthogonalLoop=1;jettySize=auto;html=1;entryX=0.5;entryY=1;entryDx=0;entryDy=0;" edge="1" parent="1" source="knzixwsPzXXYDATVJ2sN-4" target="knzixwsPzXXYDATVJ2sN-14">
          <mxGeometry relative="1" as="geometry" />
        </mxCell>
        <mxCell id="knzixwsPzXXYDATVJ2sN-4" value="draw_xiang" style="rounded=0;whiteSpace=wrap;html=1;" vertex="1" parent="1">
          <mxGeometry x="270" y="320" width="120" height="60" as="geometry" />
        </mxCell>
        <mxCell id="knzixwsPzXXYDATVJ2sN-17" style="edgeStyle=orthogonalEdgeStyle;rounded=0;orthogonalLoop=1;jettySize=auto;html=1;entryX=0.5;entryY=1;entryDx=0;entryDy=0;" edge="1" parent="1" source="knzixwsPzXXYDATVJ2sN-5" target="knzixwsPzXXYDATVJ2sN-14">
          <mxGeometry relative="1" as="geometry" />
        </mxCell>
        <mxCell id="knzixwsPzXXYDATVJ2sN-5" value="draw_south" style="rounded=0;whiteSpace=wrap;html=1;" vertex="1" parent="1">
          <mxGeometry x="270" y="430" width="120" height="60" as="geometry" />
        </mxCell>
        <mxCell id="knzixwsPzXXYDATVJ2sN-10" value="raise_draw&amp;nbsp; 笔画间抬笔与落笔" style="rounded=0;whiteSpace=wrap;html=1;" vertex="1" parent="1">
          <mxGeometry x="590" y="130" width="220" height="60" as="geometry" />
        </mxCell>
        <mxCell id="knzixwsPzXXYDATVJ2sN-11" value="strokes&amp;nbsp; 笔画" style="rounded=0;whiteSpace=wrap;html=1;" vertex="1" parent="1">
          <mxGeometry x="590" y="260" width="220" height="60" as="geometry" />
        </mxCell>
        <mxCell id="knzixwsPzXXYDATVJ2sN-12" value="between_word&amp;nbsp; 字与字间抬笔与落笔" style="rounded=0;whiteSpace=wrap;html=1;" vertex="1" parent="1">
          <mxGeometry x="590" y="390" width="220" height="60" as="geometry" />
        </mxCell>
        <mxCell id="knzixwsPzXXYDATVJ2sN-18" style="edgeStyle=orthogonalEdgeStyle;rounded=0;orthogonalLoop=1;jettySize=auto;html=1;exitX=1;exitY=0.5;exitDx=0;exitDy=0;entryX=0;entryY=0.5;entryDx=0;entryDy=0;" edge="1" parent="1" source="knzixwsPzXXYDATVJ2sN-14" target="knzixwsPzXXYDATVJ2sN-11">
          <mxGeometry relative="1" as="geometry" />
        </mxCell>
        <mxCell id="knzixwsPzXXYDATVJ2sN-19" style="edgeStyle=orthogonalEdgeStyle;rounded=0;orthogonalLoop=1;jettySize=auto;html=1;exitX=1;exitY=0.5;exitDx=0;exitDy=0;entryX=0;entryY=0.5;entryDx=0;entryDy=0;" edge="1" parent="1" source="knzixwsPzXXYDATVJ2sN-14" target="knzixwsPzXXYDATVJ2sN-10">
          <mxGeometry relative="1" as="geometry" />
        </mxCell>
        <mxCell id="knzixwsPzXXYDATVJ2sN-20" style="edgeStyle=orthogonalEdgeStyle;rounded=0;orthogonalLoop=1;jettySize=auto;html=1;exitX=1;exitY=0.5;exitDx=0;exitDy=0;entryX=0;entryY=0.5;entryDx=0;entryDy=0;" edge="1" parent="1" source="knzixwsPzXXYDATVJ2sN-14" target="knzixwsPzXXYDATVJ2sN-12">
          <mxGeometry relative="1" as="geometry" />
        </mxCell>
        <mxCell id="knzixwsPzXXYDATVJ2sN-14" value="支撑函数" style="rounded=0;whiteSpace=wrap;html=1;" vertex="1" parent="1">
          <mxGeometry x="430" y="260" width="120" height="60" as="geometry" />
        </mxCell>
      </root>
    </mxGraphModel>
  </diagram>
</mxfile>
